<?xml version="1.0" encoding="UTF-8"?> <svg xmlns="http://www.w3.org/2000/svg" width="48" height="52" viewBox="0 0 48 52" fill="none"><path d="M23.7446 0C22.5238 0 21.3107 0.4139 20.2653 1.16505L17.0302 3.43383L13.3068 3.92438H13.2457L13.1847 3.9857C10.6973 4.54523 8.73637 6.51508 8.17938 9.0138L8.11834 9.07512V9.13644L7.63002 12.9382L5.37154 15.8815L5.3105 15.9428V16.0041C3.94472 18.1962 3.88368 21.0245 5.37154 23.117L7.69106 26.3669L8.30146 29.7394L2.01433 39.3664L0 42.371H9.33915L11.5976 47.6444L13.0016 51.0169L15.0159 47.951L21.1809 38.6306C22.8367 39.3128 24.706 39.3741 26.3083 38.6306L32.4734 47.951L34.4877 51.0169L35.8916 47.6444L38.1501 42.371H47.4893L45.4749 39.3664L39.3709 30.046L39.8592 26.3669L42.1177 23.117L42.1788 23.0557V22.9944C43.5445 20.8023 43.6056 18.0353 42.1177 15.9428L39.8592 12.6929L39.1268 9.0138H39.1878C39.1802 8.96782 39.1344 8.93716 39.1268 8.89117C38.7758 6.32346 36.7538 4.23863 34.1825 3.92438H34.1215L30.459 3.43383L27.2239 1.16505C26.1786 0.4139 24.9654 0 23.7446 0ZM23.7446 3.9857C24.1948 3.9857 24.6373 4.12366 24.9654 4.35361L28.4447 6.86766L28.872 7.17425L29.3603 7.23557L33.6331 7.84875H33.6942C34.5716 7.9484 35.182 8.56158 35.2812 9.44303V9.56567L36.0747 13.9193L36.1358 14.3485L36.441 14.7164L38.9436 18.2116C39.4091 18.8631 39.4701 19.9668 38.8826 20.9096L36.1358 24.7726L36.0747 25.2632L35.4643 29.5555V29.6168C35.4262 29.9387 35.3194 30.2376 35.1591 30.4752L35.0371 30.5366V30.5979C34.7548 30.9351 34.3656 31.1574 33.8773 31.2111H33.7552L29.2993 32.0082L28.811 32.0695L28.4447 32.3761L24.9654 34.8902C24.3169 35.3577 23.1571 35.419 22.2186 34.8288L19.0445 32.3761L18.6783 32.0695L18.1289 32.0082L13.8561 31.395H13.7951C13.1923 31.326 12.7269 31.0118 12.4522 30.5366C12.3301 30.3219 12.2386 30.069 12.208 29.8007V29.6781L11.4145 25.2019L11.3535 24.7113L11.0483 24.3434L8.54562 20.8483C8.08019 20.1967 8.01915 19.0317 8.60666 18.0889L11.0483 14.9004L11.3535 14.5325L11.4145 13.9806L11.9639 9.87226C11.9715 9.8416 12.0173 9.8416 12.0249 9.81094C12.2691 8.85284 13.0244 8.09403 13.9782 7.84875C14.0087 7.84109 14.0087 7.7951 14.0392 7.78744L18.1289 7.23557L18.6173 7.17425L19.0445 6.86766L22.5238 4.35361C22.8519 4.12366 23.2945 3.9857 23.7446 3.9857ZM37.2345 33.8478L40.2255 38.4466H35.5254L35.0371 39.673L33.6942 42.8002L29.5434 36.4231L30.459 35.7486L34.3046 35.0741V35.1354C34.3504 35.1278 34.3809 35.0818 34.4267 35.0741C35.4796 34.9285 36.4334 34.4839 37.2345 33.8478ZM10.2548 33.9091C11.0864 34.6602 12.147 35.1814 13.3068 35.3194C13.3296 35.3194 13.3449 35.3194 13.3678 35.3194L17.0912 35.8099L17.9458 36.4844L13.7951 42.8002L12.4522 39.673L11.9639 38.4466H7.26378L10.2548 33.9091Z" fill="#3E8340"></path></svg> 