<?xml version="1.0" encoding="UTF-8"?> <svg xmlns="http://www.w3.org/2000/svg" width="41" height="41" viewBox="0 0 41 41" fill="none"><path d="M8.85127 0C8.03623 0 7.23335 0.291955 6.56428 0.827206L6.46697 0.875865L6.41831 0.924524L1.55239 5.93642L1.60105 5.98508C0.0986951 7.37187 -0.363567 9.44596 0.28725 11.2403C0.293332 11.2524 0.281168 11.2768 0.28725 11.2889C1.60713 15.0661 4.98286 22.3589 11.5762 28.9522C18.1938 35.5699 25.5839 38.8118 29.2395 40.2411H29.2881C31.1797 40.8737 33.2295 40.4236 34.6893 39.1706L39.6039 34.2561C40.8933 32.9666 40.8933 30.7283 39.6039 29.4388L33.2782 23.1131L33.2295 23.0158C31.94 21.7263 29.6531 21.7263 28.3636 23.0158L25.2494 26.13C24.1242 25.5886 21.4418 24.2019 18.8751 21.7507C16.3265 19.3177 15.0249 16.5198 14.5444 15.425L17.6586 12.3108C18.9663 11.0031 18.9906 8.82556 17.6099 7.54217L17.6586 7.49351L17.5126 7.34754L11.2842 0.924524L11.2356 0.875865L11.1382 0.827206C10.4692 0.291955 9.66631 0 8.85127 0ZM8.85127 3.11419C8.96683 3.11419 9.0824 3.16893 9.19188 3.26017L15.4203 9.63452L15.5662 9.7805C15.5541 9.76833 15.6575 9.93256 15.4689 10.1211L11.5762 14.0138L10.8463 14.6951L11.1869 15.6683C11.1869 15.6683 12.9751 20.4551 16.7341 24.0376L17.0747 24.3296C20.6937 27.6323 24.9575 29.4388 24.9575 29.4388L25.9306 29.8767L30.5533 25.2541C30.8209 24.9865 30.7722 24.9865 31.0399 25.2541L37.4142 31.6285C37.6818 31.8961 37.6818 31.7988 37.4142 32.0664L32.6456 36.835C31.9279 37.4493 31.1676 37.5771 30.2613 37.2729C26.7335 35.8861 19.8787 32.8754 13.7658 26.7626C7.60437 20.6011 4.38679 13.6124 3.2068 10.2184C2.96959 9.58586 3.13989 8.64917 3.69339 8.17474L3.79071 8.07742L8.51065 3.26017C8.62014 3.16893 8.7357 3.11419 8.85127 3.11419Z" fill="#3E8340"></path></svg> 