<?xml version="1.0" encoding="UTF-8"?> <svg xmlns="http://www.w3.org/2000/svg" width="31" height="46" viewBox="0 0 31 46" fill="none"><g clip-path="url(#clip0_1917_1317)"><path d="M23.513 14.3407C16.4893 14.2232 11.4918 26.2898 19.4217 30.4054C22.0002 31.9668 25.3137 30.8034 27.6899 32.6793C32.5785 35.6088 31.789 43.1466 26.5154 45.3333C23.0036 46.9894 18.325 45.3067 16.711 41.3844C15.7076 38.7581 16.3221 35.514 13.942 33.1341C11.0913 30.2804 7.42773 30.72 4.28923 29.4656C0.326241 27.8777 -1.2294 22.6137 1.06906 19.184C2.92027 15.7277 6.4399 15.849 9.70675 15.3071C14.1559 14.3786 16.2754 9.86121 16.2793 5.80238C16.2793 -0.924427 27.3827 -2.11062 30.2217 3.87719C32.7263 8.31878 28.8722 14.4165 23.5169 14.3407H23.513Z" fill="#3E8440"></path><path d="M8.35704 45.8901C-0.603442 47.3567 -3.54749 33.6795 6.03525 31.6368C15.9213 30.0186 18.3248 44.666 8.35704 45.8901Z" fill="#3E8440"></path><path d="M7.40443 0.0416487C16.4544 -0.162998 17.4889 13.1087 8.55949 14.3176C-1.76217 15.8298 -3.11169 0.0947052 7.40443 0.0416487Z" fill="#3E8440"></path></g><defs><clipPath id="clip0_1917_1317"><rect width="31" height="46" fill="white"></rect></clipPath></defs></svg> 