<?xml version="1.0" encoding="UTF-8"?> <svg xmlns="http://www.w3.org/2000/svg" width="50" height="50" viewBox="0 0 50 50" fill="none"><path d="M24.9133 4.67139C17.1947 4.67139 10.8994 10.9667 10.8994 18.6852C10.8994 20.8749 11.7874 23.3869 12.9918 26.1301C14.1961 28.8732 15.7471 31.7867 17.3224 34.4995C20.4731 39.931 23.6481 44.4746 23.6481 44.4746L24.9133 46.3236L26.1784 44.4746C26.1784 44.4746 29.3534 39.931 32.5041 34.4995C34.0794 31.7867 35.6304 28.8732 36.8348 26.1301C38.0391 23.3869 38.9271 20.8749 38.9271 18.6852C38.9271 10.9667 32.6318 4.67139 24.9133 4.67139ZM24.9133 7.78557C30.9531 7.78557 35.8129 12.6454 35.8129 18.6852C35.8129 19.9321 35.1438 22.2921 34.0125 24.8649C32.8812 27.4378 31.318 30.2904 29.7792 32.9424C27.3341 37.1635 25.8135 39.3958 24.9133 40.7278C24.0131 39.3958 22.4925 37.1635 20.0473 32.9424C18.5085 30.2904 16.9453 27.4378 15.814 24.8649C14.6827 22.2921 14.0136 19.9321 14.0136 18.6852C14.0136 12.6454 18.8734 7.78557 24.9133 7.78557ZM24.9133 15.571C23.1919 15.571 21.7991 16.9639 21.7991 18.6852C21.7991 20.4065 23.1919 21.7994 24.9133 21.7994C26.6346 21.7994 28.0274 20.4065 28.0274 18.6852C28.0274 16.9639 26.6346 15.571 24.9133 15.571Z" fill="#3E8340"></path></svg> 