<?xml version="1.0" encoding="UTF-8"?> <svg xmlns="http://www.w3.org/2000/svg" width="51" height="51" viewBox="0 0 51 51" fill="none"><mask id="path-1-inside-1_543_362" fill="white"><path d="M22.7052 38.25C24.2458 32.6719 29.6327 28.6875 35.8377 29.3463C41.7452 29.9731 46.4414 34.9562 46.7389 40.885C46.8133 42.4469 46.6008 43.945 46.1439 45.3369C45.8677 46.1869 45.0389 46.75 44.1358 46.75H12.4924C7.12893 46.75 3.1063 41.8423 4.15818 36.5829L10.6246 4.25H23.3746L27.6246 11.6875L18.5189 18.2006L15.9371 14.875"></path></mask><path d="M35.8377 29.3463L35.7255 30.4028L35.7256 30.4028L35.8377 29.3463ZM46.7389 40.885L47.8002 40.8345L47.8001 40.8318L46.7389 40.885ZM46.1439 45.3369L45.1344 45.0055L45.1335 45.0085L46.1439 45.3369ZM4.15818 36.5829L5.20005 36.7913L5.20005 36.7913L4.15818 36.5829ZM10.6246 4.25V3.1875H9.75351L9.58268 4.04163L10.6246 4.25ZM23.3746 4.25L24.2971 3.72285L23.9911 3.1875H23.3746V4.25ZM27.6246 11.6875L28.2427 12.5517L29.0231 11.9935L28.5471 11.1604L27.6246 11.6875ZM18.5189 18.2006L17.6797 18.8522L18.3062 19.6591L19.1371 19.0648L18.5189 18.2006ZM22.7052 38.25L23.7293 38.5329C25.1366 33.4376 30.0563 29.8009 35.7255 30.4028L35.8377 29.3463L35.9498 28.2897C29.209 27.5741 23.355 31.9062 21.681 37.9671L22.7052 38.25ZM35.8377 29.3463L35.7256 30.4028C41.111 30.9743 45.4064 35.5301 45.6778 40.9382L46.7389 40.885L47.8001 40.8318C47.4765 34.3824 42.3793 28.972 35.9498 28.2897L35.8377 29.3463ZM46.7389 40.885L45.6776 40.9355C45.7458 42.3679 45.5509 43.7366 45.1344 45.0055L46.1439 45.3369L47.1534 45.6682C47.6507 44.1534 47.8808 42.5259 47.8002 40.8345L46.7389 40.885ZM46.1439 45.3369L45.1335 45.0085C45.01 45.3882 44.6138 45.6875 44.1358 45.6875V46.75V47.8125C45.464 47.8125 46.7253 46.9856 47.1544 45.6653L46.1439 45.3369ZM44.1358 46.75V45.6875H12.4924V46.75V47.8125H44.1358V46.75ZM12.4924 46.75V45.6875C7.79955 45.6875 4.27964 41.3933 5.20005 36.7913L4.15818 36.5829L3.11631 36.3746C1.93297 42.2913 6.45831 47.8125 12.4924 47.8125V46.75ZM4.15818 36.5829L5.20005 36.7913L11.6664 4.45837L10.6246 4.25L9.58268 4.04163L3.11631 36.3746L4.15818 36.5829ZM10.6246 4.25V5.3125H23.3746V4.25V3.1875H10.6246V4.25ZM23.3746 4.25L22.452 4.77715L26.702 12.2146L27.6246 11.6875L28.5471 11.1604L24.2971 3.72285L23.3746 4.25ZM27.6246 11.6875L27.0064 10.8233L17.9008 17.3364L18.5189 18.2006L19.1371 19.0648L28.2427 12.5517L27.6246 11.6875ZM18.5189 18.2006L19.3582 17.5491L16.7763 14.2234L15.9371 14.875L15.0978 15.5266L17.6797 18.8522L18.5189 18.2006Z" fill="#3E8340" mask="url(#path-1-inside-1_543_362)"></path><path d="M22.7052 38.25C24.2458 32.6719 29.6327 28.6875 35.8377 29.3463C41.7452 29.9731 46.4414 34.9562 46.7389 40.885C46.8133 42.4469 46.6008 43.945 46.1439 45.3369C45.8677 46.1869 45.0389 46.75 44.1358 46.75H12.4924C7.12893 46.75 3.1063 41.8423 4.15818 36.5829L10.6246 4.25H23.3746L27.6246 11.6875L18.5189 18.2006L15.9371 14.875M18.5296 18.2006L23.3746 36.125" stroke="#3E8340" stroke-width="4.25" stroke-miterlimit="2" stroke-linecap="round" stroke-linejoin="round"></path></svg> 