<?xml version="1.0" encoding="UTF-8"?> <svg xmlns="http://www.w3.org/2000/svg" width="51" height="51" viewBox="0 0 51 51" fill="none"><path d="M47.8125 11.9536H36.6881L35.4131 6.37544C35.2449 5.6623 34.836 5.0289 34.2555 4.58187C33.6749 4.13484 32.9581 3.90148 32.2256 3.92106H19.125C18.3925 3.90148 17.6757 4.13484 17.0951 4.58187C16.5146 5.0289 16.1058 5.6623 15.9375 6.37544L14.6625 11.8898H3.1875C2.34212 11.8898 1.53137 12.2256 0.933597 12.8234C0.335825 13.4212 0 14.2319 0 15.0773L0 43.7648C0 44.6102 0.335825 45.4209 0.933597 46.0187C1.53137 46.6165 2.34212 46.9523 3.1875 46.9523H47.8125C48.6579 46.9523 49.4686 46.6165 50.0664 46.0187C50.6642 45.4209 51 44.6102 51 43.7648V15.0773C50.9833 14.243 50.6401 13.4486 50.0442 12.8645C49.4482 12.2805 48.6469 11.9534 47.8125 11.9536ZM19.6669 7.96919H31.6519L32.5763 11.9536H18.7425L19.6669 7.96919ZM47.0156 15.9379V23.9067H3.98438V15.9379H47.0156ZM3.98438 43.0317V27.8911H19.125V28.6879C19.125 29.5333 19.4608 30.3441 20.0586 30.9418C20.6564 31.5396 21.4671 31.8754 22.3125 31.8754H28.6875C29.5329 31.8754 30.3436 31.5396 30.9414 30.9418C31.5392 30.3441 31.875 29.5333 31.875 28.6879V27.8911H47.0156V43.0317H3.98438Z" fill="#3E8340"></path></svg> 